<svg width="145" height="32" viewBox="0 0 145 32" fill="none" xmlns="http://www.w3.org/2000/svg">
<rect x="12.3577" y="4.82983" width="2.60162" height="17.234" fill="#2A0944"/>
<rect x="15.6097" y="4.82983" width="2.60162" height="17.234" fill="#59CE8F"/>
<path d="M29.9186 16.9573C29.9186 20.6817 28.3426 24.2534 25.5372 26.8869C22.7317 29.5204 18.9268 30.9999 14.9593 30.9999C10.9919 30.9999 7.1869 29.5204 4.38148 26.8869C1.57607 24.2534 5.9907e-07 20.6817 0 16.9574L4.11642 16.9574C4.11642 19.6568 5.25879 22.2457 7.29223 24.1546C9.32567 26.0634 12.0836 27.1358 14.9593 27.1358C17.835 27.1358 20.593 26.0634 22.6264 24.1546C24.6599 22.2457 25.8022 19.6568 25.8022 16.9573H29.9186Z" fill="#2A0944"/>
<path d="M0.0407403 15.0426C0.0515454 11.3183 1.63797 7.75095 4.45101 5.12531C7.26406 2.49967 11.0733 1.03082 15.0407 1.04191C19.0082 1.053 22.8088 2.5431 25.6066 5.18442C28.4044 7.82574 29.9701 11.4019 29.9593 15.1262L25.6734 15.1142C25.6811 12.4569 24.564 9.90534 22.5678 8.02076C20.5716 6.13618 17.8598 5.07299 15.0291 5.06508C12.1983 5.05717 9.4804 6.10519 7.4733 7.97859C5.46619 9.85198 4.33427 12.3973 4.32657 15.0546L0.0407403 15.0426Z" fill="#59CE8F"/>
<path d="M38.9081 10.5881V7.54545H53.2433V10.5881H47.8996V25H44.2519V10.5881H38.9081ZM56.4799 25H52.5253L58.5509 7.54545H63.3066L69.3236 25H65.3691L60.9969 11.5341H60.8605L56.4799 25ZM56.2327 18.1392H65.5736V21.0199H56.2327V18.1392ZM74.8847 7.54545L78.4046 13.4943H78.5409L82.0779 7.54545H86.2455L80.9188 16.2727L86.3648 25H82.1205L78.5409 19.0426H78.4046L74.825 25H70.5978L76.0608 16.2727L70.7 7.54545H74.8847Z" fill="black"/>
<path d="M95.3378 20.4119V14.0909H97.9088V25H95.4159V23.0611H95.3023C95.0561 23.6719 94.6513 24.1714 94.0878 24.5597C93.5291 24.9479 92.8402 25.142 92.021 25.142C91.3061 25.142 90.674 24.9834 90.1247 24.6662C89.5802 24.3442 89.1541 23.8778 88.8463 23.267C88.5386 22.6515 88.3847 21.9081 88.3847 21.0369V14.0909H90.9557V20.6392C90.9557 21.3305 91.1451 21.8797 91.5239 22.2869C91.9027 22.6941 92.3998 22.8977 93.0154 22.8977C93.3942 22.8977 93.7611 22.8054 94.1162 22.6207C94.4713 22.4361 94.7625 22.1615 94.9898 21.7969C95.2218 21.4276 95.3378 20.9659 95.3378 20.4119ZM100.553 25V14.0909H103.046V15.9091H103.159C103.358 15.2794 103.699 14.794 104.182 14.4531C104.67 14.1075 105.226 13.9347 105.851 13.9347C105.993 13.9347 106.152 13.9418 106.327 13.956C106.507 13.9654 106.656 13.982 106.774 14.0057V16.3707C106.665 16.3329 106.493 16.2997 106.256 16.2713C106.024 16.2382 105.799 16.2216 105.581 16.2216C105.112 16.2216 104.691 16.3234 104.317 16.527C103.948 16.7259 103.656 17.0028 103.443 17.358C103.23 17.7131 103.124 18.1226 103.124 18.5866V25H100.553ZM108.596 25V10.4545H111.167V15.8949H111.274C111.406 15.6297 111.593 15.348 111.835 15.0497C112.076 14.7467 112.403 14.4886 112.815 14.2756C113.227 14.0578 113.752 13.9489 114.391 13.9489C115.234 13.9489 115.994 14.1643 116.671 14.5952C117.353 15.0213 117.893 15.6534 118.291 16.4915C118.693 17.3248 118.894 18.3475 118.894 19.5597C118.894 20.7576 118.698 21.7756 118.305 22.6136C117.912 23.4517 117.377 24.0909 116.7 24.5312C116.023 24.9716 115.256 25.1918 114.399 25.1918C113.774 25.1918 113.255 25.0876 112.843 24.8793C112.431 24.6709 112.1 24.42 111.849 24.1264C111.603 23.8281 111.411 23.5464 111.274 23.2812H111.124V25H108.596ZM111.117 19.5455C111.117 20.2509 111.217 20.8688 111.416 21.3991C111.619 21.9295 111.91 22.3437 112.289 22.642C112.673 22.9356 113.137 23.0824 113.681 23.0824C114.249 23.0824 114.725 22.9309 115.109 22.6278C115.492 22.3201 115.781 21.901 115.975 21.3707C116.174 20.8357 116.274 20.2273 116.274 19.5455C116.274 18.8684 116.176 18.267 115.982 17.7415C115.788 17.2159 115.499 16.804 115.116 16.5057C114.732 16.2074 114.254 16.0582 113.681 16.0582C113.132 16.0582 112.666 16.2027 112.282 16.4915C111.899 16.7803 111.607 17.1851 111.408 17.706C111.214 18.2268 111.117 18.84 111.117 19.5455ZM124.219 25.2202C123.528 25.2202 122.905 25.0971 122.351 24.8509C121.802 24.5999 121.366 24.2306 121.044 23.7429C120.727 23.2552 120.569 22.6539 120.569 21.9389C120.569 21.3234 120.682 20.8144 120.91 20.4119C121.137 20.0095 121.447 19.6875 121.84 19.446C122.233 19.2045 122.676 19.0223 123.168 18.8991C123.665 18.7713 124.179 18.679 124.709 18.6222C125.348 18.5559 125.867 18.4967 126.265 18.4446C126.662 18.3878 126.951 18.3026 127.131 18.1889C127.316 18.0705 127.408 17.8883 127.408 17.642V17.5994C127.408 17.0644 127.25 16.6501 126.932 16.3565C126.615 16.063 126.158 15.9162 125.562 15.9162C124.932 15.9162 124.432 16.0535 124.063 16.3281C123.698 16.6027 123.452 16.9271 123.324 17.3011L120.924 16.9602C121.113 16.2973 121.426 15.7434 121.861 15.2983C122.297 14.8485 122.83 14.5123 123.459 14.2898C124.089 14.0625 124.785 13.9489 125.547 13.9489C126.073 13.9489 126.596 14.0104 127.117 14.1335C127.638 14.2566 128.114 14.4602 128.544 14.7443C128.975 15.0237 129.321 15.4048 129.581 15.8878C129.847 16.3707 129.979 16.9744 129.979 17.6989V25H127.508V23.5014H127.422C127.266 23.8045 127.046 24.0885 126.762 24.3537C126.482 24.6141 126.13 24.8248 125.704 24.9858C125.282 25.142 124.787 25.2202 124.219 25.2202ZM124.887 23.331C125.403 23.331 125.85 23.2292 126.229 23.0256C126.608 22.8172 126.899 22.5426 127.103 22.2017C127.311 21.8608 127.415 21.4891 127.415 21.0866V19.8011C127.335 19.8674 127.197 19.929 127.003 19.9858C126.814 20.0426 126.601 20.0923 126.364 20.1349C126.127 20.1776 125.893 20.2154 125.661 20.2486C125.429 20.2817 125.228 20.3101 125.057 20.3338C124.674 20.3859 124.33 20.4711 124.027 20.5895C123.724 20.7079 123.485 20.8736 123.31 21.0866C123.135 21.295 123.047 21.5649 123.047 21.8963C123.047 22.3698 123.22 22.7273 123.566 22.9688C123.911 23.2102 124.352 23.331 124.887 23.331ZM135.135 18.608V25H132.564V14.0909H135.022V15.9446H135.15C135.401 15.3338 135.801 14.8485 136.35 14.4886C136.904 14.1288 137.588 13.9489 138.402 13.9489C139.155 13.9489 139.811 14.1098 140.37 14.4318C140.933 14.7538 141.369 15.2202 141.677 15.831C141.989 16.4418 142.143 17.1828 142.138 18.054V25H139.567V18.4517C139.567 17.7225 139.378 17.152 138.999 16.7401C138.625 16.3281 138.107 16.1222 137.444 16.1222C136.994 16.1222 136.594 16.2216 136.243 16.4205C135.898 16.6146 135.625 16.8963 135.427 17.2656C135.232 17.6349 135.135 18.0824 135.135 18.608Z" fill="#59CE8F"/>
</svg>
